<svg width="31" height="31" viewBox="0 0 31 31" fill="none" xmlns="http://www.w3.org/2000/svg">
<g clip-path="url(#clip0_7_998)">
<path d="M14.8001 18.5666C12.1039 21.0184 9.46722 23.3933 6.85693 25.7978C5.34473 27.1907 3.88668 28.644 2.37801 30.0407C1.97618 30.4222 1.51444 30.7324 1.01183 30.9583C0.763982 31.0639 0.228775 30.9583 0.10672 30.7646C-0.0547755 30.5076 -0.00702786 30.0515 0.0805697 29.7161C0.144296 29.4715 0.403767 29.2691 0.599513 29.0727C4.32206 25.3497 8.04632 21.6291 11.7722 17.9109C12.1903 17.4939 12.6203 17.0896 13.1007 16.6265C11.4724 14.7935 9.84167 13.0248 8.28484 11.1904C5.80014 8.26132 3.3653 5.28865 0.909865 2.3342C0.820607 2.22683 0.743827 2.1093 0.653738 2.00193C0.224053 1.48599 -0.0788772 0.929898 0.410382 0.304048C0.776756 -0.164547 1.6526 -0.094559 2.26246 0.542917C3.7813 2.13005 5.26085 3.75565 6.72801 5.39372C9.407 8.38305 12.0651 11.3918 14.7345 14.39C14.8488 14.4991 14.9703 14.6 15.0982 14.6921C17.1623 12.6881 19.2036 10.6907 21.262 8.71043C23.6491 6.41501 26.0446 4.12863 28.4485 1.85125C29.3502 0.995224 30.0733 0.84093 30.6267 1.34038C31.2002 1.85781 31.1468 2.72225 30.2322 3.64909C27.7595 6.15524 25.2271 8.60053 22.6972 11.0486C20.7698 12.9141 18.8117 14.7474 16.7604 16.696C18.4273 18.4472 20.0215 20.1926 21.6929 21.8573C23.2983 23.4563 24.9934 24.9625 26.6304 26.5285C27.2704 27.1178 27.8696 27.7513 28.424 28.4246C28.8711 28.9896 28.9372 29.6909 28.3875 30.2481C27.8459 30.7976 27.2188 30.6034 26.6964 30.1874C25.697 29.4331 24.739 28.6236 23.8268 27.7624C21.0342 24.9844 18.291 22.1555 15.5298 19.345C15.3114 19.1231 15.1028 18.8902 14.8001 18.5666Z" fill="black"/>
</g>
<defs>
<clipPath id="clip0_7_998">
<rect width="31" height="31" fill="white"/>
</clipPath>
</defs>
</svg>
