<svg width="32" height="23" viewBox="0 0 32 23" fill="none" xmlns="http://www.w3.org/2000/svg">
<g clip-path="url(#clip0_30_232)">
<path d="M0.0239406 21.3468C-0.056685 21.8703 0.370624 22.4674 0.956814 22.651C1.26372 22.7471 1.58183 22.8025 1.90304 22.8156C2.17119 22.8255 2.43935 22.8373 2.70751 22.8496C3.33517 22.8774 3.97789 22.9062 4.62039 22.9062C4.87854 22.9062 5.13664 22.9015 5.39336 22.8902C6.64315 22.8363 7.91208 22.7558 9.13916 22.678C10.609 22.5851 12.1287 22.4891 13.6238 22.437C17.516 22.3017 21.423 21.7635 25.2015 21.2432L25.6917 21.1756C26.5775 21.054 27.4936 20.9278 28.3867 20.7497C28.4262 20.742 28.467 20.735 28.5084 20.728C28.8672 20.6665 29.4093 20.574 29.5489 19.7458C29.5564 19.7009 29.5473 19.6549 29.5231 19.6164C29.499 19.578 29.4617 19.5498 29.418 19.5374C29.3242 19.5104 29.2373 19.4808 29.1549 19.4526C28.9861 19.3859 28.809 19.3424 28.6286 19.3236L28.0592 19.2898C26.7456 19.2118 25.3873 19.1313 24.0486 19.0954C20.2553 18.9911 16.4591 19.0903 12.6762 19.3924C10.2392 19.59 7.75782 19.7518 5.358 19.9083C4.14236 19.9875 2.92664 20.0684 1.711 20.1508C1.4514 20.1623 1.19433 20.2069 0.945903 20.2835C0.706985 20.3532 0.493086 20.4905 0.329632 20.6791C0.166179 20.8676 0.0600232 21.0994 0.0239406 21.3468Z" fill="#011F27"/>
<path d="M0.674549 11.9469C0.668624 12.1428 0.718061 12.3363 0.817095 12.5051C0.916127 12.6739 1.06068 12.8111 1.23408 12.9007C1.52862 13.0461 1.84874 13.1318 2.17621 13.1531C2.61045 13.1799 3.06612 13.2029 3.52878 13.2029C3.7551 13.2029 3.98292 13.1973 4.21068 13.184C5.56934 13.1057 6.94836 13.013 8.28271 12.9235C10.7807 12.756 13.3636 12.5821 15.9055 12.4946C19.3657 12.3749 22.8446 11.9478 26.2089 11.5347C27.091 11.4269 27.9723 11.3204 28.8533 11.2154C28.9234 11.2073 28.9945 11.2007 29.0667 11.194C29.5823 11.1464 30.2243 11.0871 30.8795 10.3818C30.8997 10.3599 30.9145 10.3334 30.9222 10.3046C30.9301 10.2758 30.931 10.2456 30.9245 10.2164C30.9183 10.1873 30.9049 10.16 30.8857 10.1372C30.8668 10.1143 30.8425 10.0963 30.8149 10.085C29.6181 9.5901 28.583 9.52234 27.5402 9.49197L26.6301 9.46555C23.7476 9.38128 20.7675 9.29413 17.8242 9.40788C12.8769 9.59942 8.03209 10.0834 2.66556 10.6494C2.16109 10.7047 1.66939 10.8448 1.21104 11.0637C1.04782 11.145 0.910807 11.2711 0.815872 11.4274C0.720938 11.5837 0.671956 11.7638 0.674549 11.9469Z" fill="#011F27"/>
<path d="M1.69277 2.57904C2.04167 2.75011 2.41906 2.85461 2.8059 2.88723C3.01805 2.90304 3.2303 2.91934 3.44268 2.9361C4.42289 3.01229 5.43387 3.09096 6.43535 3.09096C6.51275 3.09096 6.5903 3.09099 6.66771 3.08955C8.5609 3.06566 10.485 3.02126 12.3459 2.97831C14.8147 2.92153 17.3677 2.86275 19.878 2.85107C23.4713 2.83436 27.0811 2.42144 30.5723 2.02218L30.6842 2.00945C30.9042 1.96707 31.1145 1.88389 31.3043 1.76418C31.4314 1.69662 31.5755 1.62042 31.7525 1.53813C31.7842 1.52351 31.811 1.50017 31.8299 1.47083C31.8489 1.44149 31.8591 1.40736 31.8594 1.37239C31.86 1.33742 31.8505 1.30305 31.8322 1.27329C31.8138 1.24353 31.7876 1.21957 31.7563 1.20424C31.5739 1.1144 31.4205 1.02815 31.2852 0.951247C31.0728 0.807599 30.8343 0.707738 30.5832 0.657456L29.8972 0.574455C28.5647 0.412736 27.1867 0.244715 25.8232 0.187575C18.477 -0.12077 11.0176 0.168725 3.80398 0.448858L2.50937 0.499C2.31359 0.50675 2.11908 0.534494 1.92889 0.581825C1.71132 0.62301 1.51254 0.732907 1.36142 0.895533C1.21029 1.05816 1.11469 1.26502 1.08863 1.48601C1.05511 1.70967 1.09624 1.93821 1.20552 2.13594C1.31479 2.33366 1.48614 2.48947 1.69277 2.57904Z" fill="#011F27"/>
</g>
<defs>
<clipPath id="clip0_30_232">
<rect width="32" height="23" fill="white"/>
</clipPath>
</defs>
</svg>
