<svg width="29" height="28" viewBox="0 0 29 28" fill="none" xmlns="http://www.w3.org/2000/svg">
<path d="M6.55739 18.3676C8.54064 18.7097 10.5186 18.5555 12.6047 17.8962C13.8212 17.5208 14.9815 16.982 16.0538 16.2945C16.2555 16.5191 16.4552 16.7425 16.6528 16.9649C17.1381 17.5098 17.5975 18.0246 18.0778 18.5411C20.4253 21.0657 22.972 23.4662 25.4349 25.7877C25.8825 26.2099 26.3299 26.6322 26.7771 27.0548C27.1277 27.3754 27.5128 27.6558 27.9253 27.8908C28.0271 27.9451 28.1414 27.972 28.2567 27.9686C28.3773 27.9704 28.4969 27.9453 28.6067 27.895C28.6662 27.8651 28.719 27.8234 28.762 27.7726C28.8051 27.7219 28.8377 27.6629 28.8577 27.5993C28.8812 27.5236 28.8898 27.444 28.8825 27.3649C28.8754 27.2858 28.8528 27.2091 28.816 27.1387C28.6212 26.7302 28.383 26.3439 28.1058 25.9865C27.659 25.4553 27.1836 24.9488 26.6819 24.4693C25.5132 23.3359 24.3202 22.1889 23.1663 21.0796C22.3663 20.3105 21.5667 19.5409 20.7679 18.7705C19.9432 17.9745 19.1402 17.1926 18.2901 16.3635C17.9439 16.026 17.5954 15.6867 17.2448 15.3455L17.2902 15.2956C17.3563 15.2232 17.4075 15.1669 17.4621 15.1139C18.7909 13.8242 19.5194 12.2108 19.6275 10.3188C19.8152 7.03333 18.7103 4.24426 16.3438 2.02811C15.1844 0.916497 13.6803 0.236328 12.0816 0.100754C10.5268 -0.049155 8.95791 0.129485 7.47627 0.625151C5.2048 1.39942 3.27661 2.88484 1.74553 5.04024C0.426326 6.89726 -0.102433 8.95776 0.173955 11.1645C0.354228 12.6045 0.935654 13.969 2.05896 15.5892C3.12048 17.1196 4.59167 18.0284 6.55739 18.3676ZM8.90639 2.31973C9.43479 2.27477 9.98117 2.22839 10.5177 2.21059C10.6086 2.20775 10.6987 2.20628 10.7878 2.20619C13.2335 2.20619 15.1129 3.31824 16.3767 5.51446C17.5078 7.47968 17.8277 9.36305 17.3551 11.272C17.1931 11.9879 16.8696 12.657 16.4093 13.2279C15.8382 13.924 15.1441 14.5086 14.3616 14.9524C12.5751 15.969 10.5656 16.5277 8.51188 16.5789C8.31491 16.5571 8.11748 16.5378 7.92004 16.5184C7.48492 16.4759 7.03489 16.4318 6.59894 16.3605C5.51532 16.1968 4.53067 15.6363 3.83506 14.7875C2.98731 13.7964 2.37526 12.6251 2.04511 11.3622C1.66648 9.89835 1.80447 8.34829 2.43573 6.97475C3.14048 5.40592 4.07653 4.24841 5.29749 3.43618C6.2745 2.78636 7.16521 2.45215 8.10031 2.38476C8.36912 2.36542 8.63746 2.34251 8.90592 2.31973H8.90639Z" fill="#B5CACA"/>
</svg>
